# xmcd CD database file generated by Grip 2.95
# 
# Track frame offsets:
#       150
#       16043
#       36043
#       48325
#       63370
#       81020
#       104118
#       131040
#       148733
#       162040
# 
# Disc length: 2365 seconds
# 
# Revision: 3
# Processed by: cddbd v1.4b41PL2 Copyright (c) Steve Scherf et al.
# Submitted via: Grip 2.95
# 
DISCID=80093b0a
DTITLE=Leroy Jodie Pierson - Rusty Nail
DYEAR=1900
DGENRE=
TTITLE0=Roll and Tumble
TTITLE1=Little Boy Blue
TTITLE2=Rusty Nail
TTITLE3=Long Lonesome Road
TTITLE4=Mole's Moan
TTITLE5=Highway 61
TTITLE6=Write Me a Few Lines
TTITLE7=Easy Rider
TTITLE8=Steel Guitar Rag
TTITLE9=Catfish
EXTD=
EXTT0=
EXTT1=
EXTT2=
EXTT3=
EXTT4=
EXTT5=
EXTT6=
EXTT7=
EXTT8=
EXTT9=
PLAYORDER=
